<?xml version="1.0" encoding="UTF-8" standalone="no"?>
<!DOCTYPE svg PUBLIC "-//W3C//DTD SVG 1.1//EN" "http://www.w3.org/Graphics/SVG/1.1/DTD/svg11.dtd">
<svg width="100%" height="100%" viewBox="0 0 512 512" version="1.1" xmlns="http://www.w3.org/2000/svg" xmlns:xlink="http://www.w3.org/1999/xlink" xml:space="preserve" xmlns:serif="http://www.serif.com/" style="fill-rule:evenodd;clip-rule:evenodd;stroke-linejoin:round;stroke-miterlimit:2;">
    <path d="M479.296,141.524L479.296,370.018C479.296,376.66 476.535,382.302 472.182,386.477C472.161,386.488 472.15,386.509 472.129,386.519C468.615,389.902 474.335,385.593 255.999,512L44.027,389.613C37.018,385.572 32.704,378.1 32.704,370.018L32.704,143.681C32.704,137.967 34.23,132.474 36.998,127.696C37.04,127.622 37.082,127.559 37.124,127.486C39.871,122.814 43.817,118.836 48.668,116.037L244.151,3.173C251.486,-1.057 260.515,-1.057 267.85,3.173L287.234,14.37L465.195,117.11C469.552,119.636 473.066,123.203 475.508,127.412C477.949,131.632 479.296,136.483 479.296,141.524Z" style="fill:rgb(183,239,150);fill-rule:nonzero;"/>
    <path d="M479.296,141.524L479.296,370.018C479.296,376.66 476.535,382.302 472.182,386.477C472.161,386.488 472.15,386.509 472.129,386.519C468.615,389.902 474.335,385.593 255.999,512L44.027,389.613C37.018,385.572 32.704,378.1 32.704,370.018L32.704,143.681C32.704,137.967 34.23,132.474 36.998,127.696L64.275,143.292L256,252.925L475.508,127.412C477.949,131.632 479.296,136.483 479.296,141.524Z" style="fill:rgb(61,154,226);fill-rule:nonzero;"/>
    <path d="M37.125,127.486L256.001,252.925L256,512L32.704,383.056L32.705,143.681C32.705,137.967 34.231,132.474 36.999,127.696C37.041,127.622 37.083,127.559 37.125,127.486Z" style="fill:rgb(143,231,90);fill-rule:nonzero;"/>
    <path d="M479.296,141.524L479.297,370.019C479.297,378.101 474.982,385.573 467.974,389.614L256.001,512L256,252.925L475.508,127.412C477.949,131.632 479.296,136.483 479.296,141.524Z" style="fill:rgb(96,206,30);fill-rule:nonzero;"/>
</svg>
