<?xml version="1.0" encoding="UTF-8" standalone="no"?>
<!DOCTYPE svg PUBLIC "-//W3C//DTD SVG 1.1//EN" "http://www.w3.org/Graphics/SVG/1.1/DTD/svg11.dtd">
<svg width="100%" height="100%" viewBox="0 0 481 481" version="1.1" xmlns="http://www.w3.org/2000/svg" xmlns:xlink="http://www.w3.org/1999/xlink" xml:space="preserve" xmlns:serif="http://www.serif.com/" style="fill-rule:evenodd;clip-rule:evenodd;">
    <g transform="matrix(1.01803,0,0,1.16354,26.109,-37.0955)">
        <g id="g6">
            <g id="g4">
                <path id="path2" d="M288.1,286.923L247.066,372.741C247.066,372.741 241.887,383.914 244.415,389.531C246.943,395.18 252.527,398.8 258.675,398.8L341.819,398.8C346.251,398.8 350.433,396.895 353.429,393.649L426.784,248.613C426.784,248.613 432.12,233.634 426.784,227.736L353.429,82.7C350.433,79.392 346.251,77.52 341.819,77.52L258.675,77.52C252.527,77.52 246.943,81.14 244.415,86.757C241.918,92.406 247.066,103.547 247.066,103.547L288.111,189.397L133.012,189.398L174.046,103.58C174.046,103.58 179.225,92.407 176.697,86.789C174.169,81.141 168.584,77.521 162.436,77.521L79.293,77.521C74.862,77.521 70.679,79.425 67.683,82.671L-5.672,227.707C-11.009,233.636 -5.672,248.585 -5.672,248.585L67.683,393.621C70.679,396.929 74.862,398.8 79.293,398.8L162.436,398.8C168.584,398.8 174.169,395.181 176.697,389.564C179.194,383.915 174.046,372.773 174.046,372.773L133.002,286.923L288.1,286.923Z" style="fill:rgb(25,30,35);fill-rule:nonzero;stroke:url(#_Linear1);stroke-width:28.68px;"/>
            </g>
        </g>
    </g>
    <g id="g12">
    </g>
    <defs>
        <linearGradient id="_Linear1" x1="0" y1="0" x2="1" y2="0" gradientUnits="userSpaceOnUse" gradientTransform="matrix(473.014,0,0,473.014,2.12974,238.16)"><stop offset="0" style="stop-color:rgb(237,152,26);stop-opacity:1"/><stop offset="1" style="stop-color:rgb(234,76,137);stop-opacity:1"/></linearGradient>
    </defs>
</svg>
